<!--?xml version="1.0" encoding="utf-8"?-->
<!-- Generator: Adobe Illustrator 18.1.1, SVG Export Plug-In . SVG Version: 6.00 Build 0)  -->

<svg version="1.1" id="_x32_" xmlns="http://www.w3.org/2000/svg" xmlns:xlink="http://www.w3.org/1999/xlink" x="0px" y="0px" viewBox="0 0 512 512" style="width: 256px; height: 256px; opacity: 1;" xml:space="preserve">
<style type="text/css">
	.st0{fill:#4B4B4B;}
</style>
<g>
	<path class="st0" d="M278.746,287.469l17.599,222.94h55.742h55.743l17.598-222.94H278.746z M394.261,495.742h-84.364
		L294.61,302.129h114.939L394.261,495.742z" style="fill: rgb(153, 130, 4);"></path>
	<polygon class="st0" points="320.747,484.015 383.421,484.015 392.913,363.743 311.254,363.743 	" style="fill: rgb(153, 130, 4);"></polygon>
	<polygon class="st0" points="166.261,311.447 156.527,331.182 134.754,334.348 150.511,349.697 146.785,371.386 166.261,361.144 
		185.746,371.386 182.019,349.697 197.777,334.348 176.004,331.182 	" style="fill: rgb(153, 130, 4);"></polygon>
	<path class="st0" d="M210.368,146.629c-4.811-6.008-14.424-97.356-14.424-97.356c-1.977-12.826-1.508-14.326,1.379-20.424h0.515
		c7.97,0,14.424-6.463,14.424-14.424c0-7.97-6.454-14.424-14.424-14.424h-63.886c-7.962,0-14.424,6.454-14.424,14.424
		c0,7.962,6.462,14.424,14.424,14.424h0.523c2.886,6.098,3.348,7.598,1.37,20.424c0,0-9.606,91.348-14.416,97.356
		c-7.122,8.901-34.856,13.22-34.856,64.901c0,42.061,0,273.212,0,273.212c0,15.053,12.197,27.258,27.258,27.258h104.129
		c15.061,0,27.257-12.204,27.257-27.258c0,0,0-231.151,0-273.212C245.216,159.849,217.489,155.53,210.368,146.629z M234.807,364.174
		h-22.53c-6.584,30.386-24.69,52.22-46.008,52.22c-21.319,0-39.432-21.834-46.008-52.22H96.989v-36.863h21.144
		c3.508-37.319,23.727-65.947,48.137-65.947c24.416,0,44.62,28.628,48.128,65.947h20.409V364.174z" style="fill: rgb(153, 130, 4);"></path>
</g>
</svg>
