<!--?xml version="1.0" encoding="utf-8"?-->
<!-- Generator: Adobe Illustrator 18.1.1, SVG Export Plug-In . SVG Version: 6.00 Build 0)  -->

<svg version="1.1" id="_x32_" xmlns="http://www.w3.org/2000/svg" xmlns:xlink="http://www.w3.org/1999/xlink" x="0px" y="0px" viewBox="0 0 512 512" style="width: 256px; height: 256px; opacity: 1;" xml:space="preserve">
<style type="text/css">
	.st0{fill:#4B4B4B;}
</style>
<g>
	<path class="st0" d="M272.658,25.352h60.488c3.664,0,6.644-2.98,6.644-6.652V6.653c0-3.681-2.981-6.653-6.644-6.653h-60.488
		c-3.681,0-6.653,2.972-6.653,6.653V18.7C266.006,22.372,268.978,25.352,272.658,25.352z" style="fill: rgb(223, 86, 86);"></path>
	<path class="st0" d="M334.878,104.758V34.612h-63.677v70.146c0,23.638-74.06,48.466-74.876,113.042h-94.101v7.526
		c0,0,0,1.024,0,3.164c0,6.412,0,22.83,0,51.571c0,35.56,19.25,72.112,55.468,95.283c2.306,1.474,4.096,3.022,5.537,4.679
		c1.082,1.233,1.974,2.532,2.731,3.939c1.124,2.106,1.949,4.462,2.498,7.21c0.55,2.731,0.824,5.836,0.824,9.3c0,0,0,42.421,0,53.37
		c-0.008,0.266-0.058,0.682-0.308,1.29c-0.216,0.541-0.592,1.207-1.149,1.956c-0.974,1.316-2.531,2.856-4.579,4.33
		c-3.064,2.215-7.21,4.305-11.948,5.779c-4.737,1.49-10.066,2.381-15.544,2.381h-7.526V512h134.098v-0.682h124.17
		c12.856,0,23.28-10.425,23.28-23.271c0,0,0-248.965,0-269.172C409.775,153.49,334.878,128.529,334.878,104.758z M247.272,496.955
		H143.28V484.2c3.496-0.4,6.877-1.048,10.1-1.923c4.121-1.124,7.993-2.606,11.523-4.363c2.648-1.324,5.104-2.797,7.343-4.429
		c3.347-2.456,6.22-5.237,8.393-8.451c1.091-1.616,1.998-3.347,2.656-5.221c0.65-1.873,1.041-3.888,1.041-5.969
		c0-5.479,0-18.818,0-30.79c0-5.986,0-11.623,0-15.778c0-2.072,0-3.771,0-4.953c0-1.183,0-1.84,0-1.84
		c0-3.763-0.25-7.419-0.874-10.958c-0.458-2.656-1.124-5.254-2.04-7.776c-1.382-3.772-3.355-7.352-5.97-10.582
		c-2.614-3.222-5.844-6.078-9.641-8.501c-32.197-20.616-48.533-52.487-48.533-82.603c0-19.158,0-32.837,0-41.738
		c0-2.09,0-3.905,0-5.47h155.997c0,8.251,0,23.546,0,47.208c0,30.116-16.336,61.987-48.533,82.603
		c-3.372,2.156-6.303,4.654-8.742,7.444c-1.832,2.09-3.389,4.362-4.663,6.735c-1.923,3.58-3.197,7.402-3.996,11.356
		c-0.8,3.955-1.116,8.043-1.116,12.273c0,0,0,42.421,0,53.37c0,2.472,0.55,4.845,1.432,6.994c0.766,1.889,1.798,3.63,3.005,5.254
		c2.116,2.831,4.78,5.312,7.835,7.527c4.587,3.305,10.108,6.012,16.261,7.951c3.938,1.232,8.143,2.131,12.514,2.631V496.955z
		 M366.668,405.952H239.404v-35.069c31.997-23.246,48.924-57.467,48.924-90.821h78.34V405.952z" style="fill: rgb(223, 86, 86);"></path>
	<path class="st0" d="M245.915,299.895v-26.526h-101.27v26.526c0,21.573,15.012,40.732,36.135,53.154
		c4.605,2.714,11.582,3.93,14.496,3.93s9.275-1.049,14.504-3.93C231.278,341.192,245.915,321.468,245.915,299.895z" style="fill: rgb(223, 86, 86);"></path>
</g>
</svg>
